<svg xmlns="http://www.w3.org/2000/svg" xmlns:xlink="http://www.w3.org/1999/xlink" preserveAspectRatio="none"><symbol viewBox="0 0 24 24" id="icon-mail"><path fill="#0AD9C6" d="M19 7H5a2 2 0 00-2 2v9a2 2 0 002 2h14a2 2 0 002-2V9a2 2 0 00-2-2zm-9.684 7.316l1.602 1.4c.305.266.691.398 1.082.398s.777-.133 1.082-.398l1.602-1.4-.037.037 3.646 3.646H5.707l3.646-3.646-.037-.037zM5 17.293V10.54l3.602 3.151L5 17.293zm10.398-3.602L19 10.54v6.75l-3.602-3.599zM19 9v.21l-6.576 5.754a.68.68 0 01-.848 0L5 9.21V9h14z"/></symbol><symbol viewBox="0 0 24 24" id="icon-phone"><path fill="#0AD9C6" d="M23 16.92a3.006 3.006 0 00-2.598-3.023c-.8-.098-1.695-.314-2.586-.646a3.045 3.045 0 00-1.344-.174 2.987 2.987 0 00-1.819.855l-.72.72a14.84 14.84 0 01-4.583-4.589l.726-.726c.322-.33.563-.726.707-1.156a2.992 2.992 0 00-.039-2.011 11.591 11.591 0 01-.644-2.595 3.02 3.02 0 00-.963-1.804A2.982 2.982 0 007.11 1H4.114a2.998 2.998 0 00-2.989 3.277c.3 3.076 1.365 6.243 3.216 9.102 1.502 2.413 3.648 4.623 6.298 6.306 2.568 1.697 5.684 2.862 9.086 3.231a2.994 2.994 0 002.406-.874c.54-.544.873-1.297.87-2.121zm-2 0v3a.997.997 0 01-.996 1.008c-3.149-.336-5.961-1.391-8.263-2.912-2.428-1.543-4.359-3.537-5.702-5.694-1.697-2.62-2.655-5.481-2.924-8.238-.024-.268.064-.526.229-.724s.403-.33.678-.355L7.11 3a.995.995 0 01.687.256c.17.154.288.366.323.608.142 1.072.408 2.117.757 3.025.081.216.08.447.01.658a1.049 1.049 0 01-.242.395L7.383 9.203a1.001 1.001 0 00-.162 1.201c1.584 2.785 3.839 4.957 6.381 6.378.397.222.882.144 1.195-.166l1.27-1.27a.984.984 0 01.598-.279c.152-.015.31.005.459.06 1.022.381 2.07.636 3.034.754a.976.976 0 01.615.355c.147.181.231.412.226.682z"/></symbol><symbol viewBox="0 0 20 20" id="icon-play"><path d="M15 10.001c0 .299-.305.514-.305.514l-8.561 5.303C5.51 16.227 5 15.924 5 15.149V4.852c0-.777.51-1.078 1.135-.67l8.561 5.305c-.001 0 .304.215.304.514z"/></symbol>

<view id="icon-mail" viewBox="0 0 24 24" />
<view id="icon-phone" viewBox="0 30 24 24" />
<view id="icon-play" viewBox="0 60 20 20" />

<use xlink:href="#icon-mail" width="24" height="24" x="0" y="0"></use>
<use xlink:href="#icon-phone" width="24" height="24" x="0" y="30"></use>
<use xlink:href="#icon-play" width="20" height="20" x="0" y="60"></use>
</svg>
